<?xml version="1.0" encoding="utf-8"?>
<!-- Generator: Adobe Illustrator 23.0.1, SVG Export Plug-In . SVG Version: 6.00 Build 0)  -->
<svg version="1.1" id="Capa_1" xmlns="http://www.w3.org/2000/svg" xmlns:xlink="http://www.w3.org/1999/xlink" x="0px" y="0px"
	 viewBox="0 0 39.4 39.4" style="enable-background:new 0 0 39.4 39.4;" xml:space="preserve">
<style type="text/css">
	.st0{fill:#FFFFFA;}
</style>
<g>
	<path class="st0" d="M33.6,21v12.4c0,1.1-0.9,2-2,2H7.8c-1.1,0-2-0.9-2-2V21c0-0.7,0.4-1.3,0.9-1.7l11.9-7.4c0.6-0.4,1.5-0.4,2.1,0
		l11.9,7.4C33.3,19.6,33.6,20.3,33.6,21z M38.5,15.4L20.8,4.4c-0.6-0.4-1.5-0.4-2.1,0L0.9,15.4C0,16-0.3,17.3,0.3,18.2
		c0.6,0.9,1.8,1.2,2.8,0.6L19.7,8.4l16.6,10.4c0.3,0.2,0.7,0.3,1.1,0.3c0.7,0,1.3-0.3,1.7-0.9C39.7,17.2,39.4,16,38.5,15.4z"/>
</g>
</svg>
