<?xml version="1.0" encoding="utf-8"?>
<!-- Generator: Adobe Illustrator 23.0.1, SVG Export Plug-In . SVG Version: 6.00 Build 0)  -->
<svg version="1.1" id="Warstwa_1" xmlns="http://www.w3.org/2000/svg" xmlns:xlink="http://www.w3.org/1999/xlink" x="0px" y="0px"
	 viewBox="0 0 456.4 96.4" style="enable-background:new 0 0 456.4 96.4;" xml:space="preserve">
<style type="text/css">
	.st0{fill:none;}
	.st1{fill:url(#SVGID_1_);stroke:url(#SVGID_2_);stroke-miterlimit:10;}
	.st2{fill:#D9D9D9;}
</style>
<pattern  y="96.4" width="456.4" height="96.4" patternUnits="userSpaceOnUse" id="SVGID_23_" viewBox="0 -96.4 456.4 96.4" style="overflow:visible;">
	<g>
		<rect y="-96.4" class="st0" width="456.4" height="96.4"/>
	</g>
</pattern>
<g>
	<g transform="translate(162.16000127792358, 103.47624969482422)">
		<pattern  id="SVGID_2_" xlink:href="#SVGID_23_" patternTransform="matrix(1 0 0 1 272.42 17281.6016)">
		</pattern>
		
			<linearGradient id="SVGID_1_" gradientUnits="userSpaceOnUse" x1="-543.6531" y1="145.2752" x2="-543.6531" y2="143.9189" gradientTransform="matrix(170.56 0 0 -56.89 92907.7266 8170.874)">
			<stop  offset="0" style="stop-color:#ED1C24"/>
			<stop  offset="1" style="stop-color:#3B4D22"/>
		</linearGradient>
		<path class="st1" d="M90.4-51l-3.5-1.5l0,0c-2.5-1.1-4.7-2.2-6.7-3.3l0,0l0,0c-2-1.1-3.8-2.5-5.2-4.1l0,0l0,0
			c-1.5-1.6-2.6-3.5-3.4-5.7l0,0l0,0c-0.8-2.2-1.2-4.9-1.2-8.1l0,0l0,0c0-6.1,1.8-11.1,5.5-14.8l0,0l0,0c3.7-3.7,8.8-5.5,15.4-5.5
			l0,0l0,0c2.4,0,4.6,0.2,6.7,0.6l0,0l0,0c2.1,0.4,3.8,1.1,5.3,2l0,0l0,0c1.5,0.9,2.7,2.1,3.5,3.5l0,0l0,0c0.8,1.4,1.3,3.1,1.3,5
			l0,0l0,0c0,1.9-0.3,3.5-1,4.8l0,0l0,0c-0.7,1.3-1.5,2.5-2.4,3.4l0,0l0,0c-1.2-1-2.9-1.9-5-2.7l0,0l0,0c-2.1-0.8-4.3-1.1-6.8-1.1
			l0,0l0,0c-2.5,0-4.4,0.5-5.5,1.4l0,0l0,0c-1.2,0.9-1.8,2-1.8,3.4l0,0l0,0c0,1.1,0.4,2,1.1,2.6l0,0l0,0c0.7,0.7,1.8,1.3,3.3,1.9
			l0,0l4.5,1.8l0,0c5.3,2.2,9.3,4.9,12.1,8.3l0,0l0,0c2.8,3.4,4.2,7.9,4.2,13.7l0,0l0,0c0,6.1-1.9,11.1-5.6,14.9l0,0l0,0
			c-3.8,3.8-9.3,5.7-16.6,5.7l0,0l0,0c-2.6,0-5-0.3-7.2-0.8l0,0l0,0c-2.2-0.5-4.1-1.3-5.8-2.4l0,0l0,0c-1.7-1.1-2.9-2.4-3.9-3.9l0,0
			l0,0c-0.9-1.5-1.4-3.3-1.4-5.4l0,0l0,0c0-2.1,0.5-3.9,1.4-5.4l0,0l0,0c1-1.5,2-2.6,3.1-3.4l0,0l0,0c1.6,1.6,3.5,3,5.8,4.1l0,0l0,0
			c2.3,1.2,4.7,1.7,7.4,1.7l0,0l0,0c2.7,0,4.7-0.5,5.8-1.6l0,0l0,0c1.1-1.1,1.7-2.4,1.7-3.8l0,0l0,0c0-1.4-0.4-2.6-1.3-3.3l0,0l0,0
			C93.2-49.5,92-50.2,90.4-51L90.4-51z M140.9-27.6L140.9-27.6L140.9-27.6c-0.8,0.9-1.9,1.6-3.2,2.1l0,0l0,0
			c-1.3,0.5-2.9,0.8-4.8,0.8l0,0l0,0c-2.3,0-4.3-0.4-6-1.3l0,0l0,0c-1.7-0.8-2.8-2-3.4-3.5l0,0l0,0c-0.6-1.7-1.3-4.5-2.2-8.2l0,0
			l0,0c-0.8-3.8-1.6-7.9-2.4-12.4l0,0l0,0c-0.8-4.5-1.5-9-2.2-13.7l0,0l0,0c-0.7-4.6-1.2-8.7-1.6-12.3l0,0l0,0
			c0.8-1,1.8-1.9,3.2-2.7l0,0l0,0c1.3-0.8,2.8-1.1,4.3-1.1l0,0l0,0c2,0,3.6,0.6,4.8,1.7l0,0l0,0c1.3,1.1,2,3.1,2.3,5.8l0,0l0,0
			c0.6,5.5,1,10,1.4,13.6l0,0l0,0c0.4,3.6,0.7,6.5,1,8.8l0,0l0,0c0.2,2.3,0.4,4,0.6,5.2l0,0l0,0c0.1,1.2,0.3,2.2,0.4,2.9l0,0h0.3
			l0,0c0.2-1.2,0.5-2.8,0.9-5.1l0,0l0,0c0.4-2.2,0.9-4.7,1.5-7.5l0,0l0,0c0.6-2.8,1.1-5.9,1.8-9.2l0,0l0,0c0.6-3.3,1.2-6.6,1.9-9.8
			l0,0l0,0c1.1-0.8,2.2-1.4,3.3-1.8l0,0l0,0c1.1-0.4,2.5-0.6,4.1-0.6l0,0l0,0c2,0,3.6,0.4,5,1.2l0,0l0,0c1.4,0.8,2.3,2,2.7,3.7l0,0
			l0,0c0.7,3.2,1.3,6.3,1.9,9.3l0,0l0,0c0.6,3,1.2,5.8,1.7,8.4l0,0l0,0c0.5,2.6,1,4.8,1.4,6.8l0,0l0,0c0.4,2,0.7,3.6,0.8,4.7l0,0
			h0.4l0,0c0.6-5.6,1.2-11.4,1.8-17.4l0,0l0,0c0.6-6,1.1-12.1,1.6-18.3l0,0l0,0c1-0.8,2.1-1.4,3.2-1.7l0,0l0,0
			c1.1-0.4,2.2-0.5,3.4-0.5l0,0l0,0c2,0,3.6,0.5,4.9,1.6l0,0l0,0c1.3,1.1,1.9,3,1.9,5.6l0,0l0,0c0,1.2-0.1,2.9-0.4,5.2l0,0l0,0
			c-0.3,2.3-0.6,4.9-1.1,7.8l0,0l0,0c-0.5,2.9-1,5.9-1.6,9.1l0,0l0,0c-0.6,3.2-1.2,6.3-1.8,9.2l0,0l0,0c-0.6,3-1.1,5.6-1.7,8l0,0
			l0,0c-0.5,2.4-1,4.2-1.4,5.5l0,0l0,0c-0.8,0.9-2,1.6-3.6,2.1l0,0l0,0c-1.6,0.5-3.4,0.8-5.2,0.8l0,0l0,0c-4.7,0-7.5-1.5-8.3-4.6
			l0,0l0,0c-0.3-1.3-0.8-2.9-1.3-4.9l0,0l0,0c-0.5-2-1-4.2-1.6-6.6l0,0l0,0c-0.6-2.4-1.1-4.9-1.6-7.4l0,0l0,0
			c-0.5-2.6-0.9-5-1.3-7.4l0,0l0,0c-0.4,2.5-0.9,5.2-1.4,7.9l0,0l0,0c-0.6,2.7-1.1,5.4-1.7,7.9l0,0l0,0c-0.6,2.6-1.1,4.9-1.6,7.1
			l0,0l0,0C141.5-30.6,141.1-28.9,140.9-27.6z M201.6-38.1L201.6-38.1L201.6-38.1c1,0,2-0.1,3.2-0.4l0,0l0,0c1.1-0.2,2-0.6,2.6-1
			l0,0v-8.7l-6.1,0.6l0,0c-1.6,0.1-2.9,0.6-3.9,1.3l0,0l0,0c-1,0.7-1.5,1.8-1.5,3.3l0,0l0,0c0,1.4,0.4,2.6,1.3,3.5l0,0l0,0
			C198-38.5,199.5-38.1,201.6-38.1z M200.9-80.7L200.9-80.7L200.9-80.7c3,0,5.8,0.4,8.3,1.2l0,0l0,0c2.5,0.8,4.6,2,6.4,3.6l0,0l0,0
			c1.8,1.6,3.1,3.7,4.1,6.2l0,0l0,0c1,2.5,1.4,5.4,1.4,8.8l0,0v24.3l0,0c0,1.9-0.4,3.4-1.2,4.6l0,0l0,0c-0.8,1.2-1.8,2.2-2.9,3.1
			l0,0l0,0c-3.6,2.8-8.8,4.2-15.4,4.2l0,0l0,0c-3,0-5.6-0.4-8-1.1l0,0l0,0c-2.4-0.7-4.4-1.8-6.1-3.3l0,0l0,0c-1.7-1.4-3-3.3-3.9-5.5
			l0,0l0,0c-0.9-2.2-1.4-4.8-1.4-7.8l0,0l0,0c0-5,1.1-8.8,3.4-11.5l0,0l0,0c2.3-2.7,5.9-4.3,10.7-5l0,0l11-1.5v-0.8l0,0
			c0-2.1-0.7-3.6-2.2-4.5l0,0l0,0c-1.4-0.9-3.5-1.4-6.2-1.4l0,0l0,0c-2.1,0-4.2,0.3-6.2,0.9l0,0l0,0c-2,0.6-3.8,1.3-5.5,2.2l0,0l0,0
			c-0.7-0.7-1.3-1.7-1.8-3l0,0l0,0c-0.5-1.3-0.8-2.7-0.8-4.2l0,0l0,0c0-1.9,0.4-3.4,1.1-4.5l0,0l0,0c0.7-1.1,1.8-2.1,3.2-2.9l0,0
			l0,0c1.6-0.8,3.6-1.4,5.8-1.7l0,0l0,0C196.8-80.5,198.9-80.7,200.9-80.7z M248.5-80.7L248.5-80.7L248.5-80.7
			c3.4,0,6.5,0.6,9.4,1.7l0,0l0,0c2.9,1.1,5.4,2.8,7.4,5.2l0,0l0,0c2.1,2.3,3.7,5.2,4.9,8.7l0,0l0,0c1.2,3.5,1.8,7.7,1.8,12.5l0,0
			l0,0c0,4.6-0.5,8.7-1.5,12.2l0,0l0,0c-1,3.5-2.4,6.4-4.3,8.7l0,0l0,0c-1.8,2.4-4.1,4.1-6.7,5.3l0,0l0,0c-2.6,1.2-5.5,1.7-8.7,1.7
			l0,0l0,0c-2.4,0-4.6-0.5-6.7-1.4l0,0v18l0,0c-0.6,0.2-1.5,0.5-2.7,0.7l0,0l0,0c-1.2,0.2-2.5,0.4-3.8,0.4l0,0l0,0
			c-1.2,0-2.3-0.1-3.3-0.3l0,0l0,0c-1-0.2-1.8-0.6-2.5-1.3l0,0l0,0c-0.7-0.6-1.2-1.5-1.5-2.7l0,0l0,0c-0.3-1.1-0.5-2.6-0.5-4.4l0,0
			v-52.1l0,0c0-2,0.3-3.5,1-4.8l0,0l0,0c0.6-1.2,1.5-2.4,2.6-3.4l0,0l0,0c1.7-1.4,3.9-2.6,6.5-3.5l0,0l0,0
			C242.5-80.3,245.3-80.7,248.5-80.7z M248.7-39.3L248.7-39.3L248.7-39.3c5.8,0,8.7-4.4,8.7-13.3l0,0l0,0c0-4.6-0.7-8.1-2.1-10.3
			l0,0l0,0c-1.4-2.2-3.5-3.4-6.2-3.4l0,0l0,0c-1.1,0-2,0.2-2.9,0.5l0,0l0,0c-0.8,0.3-1.6,0.7-2.2,1.1l0,0v23.9l0,0
			c0.7,0.4,1.4,0.8,2.2,1.1l0,0l0,0C247-39.4,247.8-39.3,248.7-39.3z M278.6-93.7L278.6-93.7L278.6-93.7c0-2.8,0.7-5.1,2.1-7l0,0
			l0,0c1.4-1.9,3.3-2.8,5.7-2.8l0,0l0,0c2.4,0,4.2,0.9,5.7,2.8l0,0l0,0c1.4,1.9,2.1,4.2,2.1,7l0,0l0,0c0,2.7-0.7,5.1-2.1,6.9l0,0
			l0,0c-1.4,1.9-3.3,2.8-5.7,2.8l0,0l0,0c-2.4,0-4.2-0.9-5.7-2.8l0,0l0,0C279.3-88.7,278.6-91,278.6-93.7z M293.8-70.2V-27l0,0
			c-0.6,0.1-1.5,0.3-2.7,0.6l0,0l0,0c-1.2,0.2-2.4,0.4-3.6,0.4l0,0l0,0c-1.2,0-2.3-0.1-3.2-0.3l0,0l0,0c-1-0.2-1.8-0.6-2.4-1.3l0,0
			l0,0c-0.7-0.6-1.2-1.5-1.5-2.6l0,0l0,0c-0.4-1.1-0.5-2.5-0.5-4.3l0,0v-43.3l0,0c0.6-0.1,1.5-0.3,2.7-0.6l0,0l0,0
			c1.2-0.2,2.4-0.4,3.6-0.4l0,0l0,0c1.2,0,2.3,0.1,3.3,0.3l0,0l0,0c1,0.2,1.8,0.6,2.4,1.3l0,0l0,0c0.7,0.6,1.2,1.5,1.5,2.6l0,0l0,0
			C293.6-73.4,293.8-72,293.8-70.2L293.8-70.2z"/>
	</g>
</g>
<g>
	<g transform="translate(130.0000023841858, 99.28656387329102)">
		<path class="st2" d="M-130-19.7v-46.1h7.5v46.1C-122.5-19.7-130-19.7-130-19.7z M-119.9-65.8h3.2l0,0c2,0,3.9,0.3,5.8,0.9l0,0l0,0
			c1.9,0.6,3.6,1.6,5.2,2.8l0,0l0,0c1.5,1.2,2.7,2.8,3.7,4.5l0,0l0,0c0.9,1.8,1.4,3.8,1.4,6l0,0l0,0c0,2.3-0.4,4.4-1.2,6.3l0,0l0,0
			c-0.8,1.9-1.9,3.5-3.3,4.8l0,0l0,0c-1.4,1.3-3.1,2.3-5.1,3l0,0l0,0c-2,0.7-4.2,1.1-6.6,1.1l0,0h-3v-5.5h4.3l0,0
			c0.9,0,1.8-0.2,2.7-0.5l0,0l0,0c0.9-0.3,1.7-0.8,2.5-1.5l0,0l0,0c0.8-0.7,1.4-1.7,1.8-3l0,0l0,0c0.5-1.3,0.7-2.8,0.7-4.7l0,0l0,0
			c0-0.8-0.1-1.6-0.3-2.6l0,0l0,0c-0.2-1-0.6-1.9-1.3-2.8l0,0l0,0c-0.6-0.9-1.6-1.6-2.7-2.3l0,0l0,0c-1.2-0.6-2.7-0.9-4.6-0.9l0,0
			h-3.1L-119.9-65.8L-119.9-65.8z M-85-68.3v37.8l0,0c0,1.4,0.2,2.5,0.6,3.3l0,0l0,0c0.4,0.8,0.9,1.4,1.6,1.8l0,0l0,0
			c0.7,0.4,1.4,0.7,2.3,0.8l0,0l0,0c0.9,0.1,1.8,0.2,2.8,0.2l0,0v4.6l0,0c-0.5,0.1-1.1,0.1-1.7,0.2l0,0l0,0c-0.5,0-1,0.1-1.6,0.1
			l0,0l0,0c-0.6,0-1.2,0-1.9,0l0,0l0,0c-0.6,0-1.3,0-1.9-0.1l0,0l0,0c-0.6,0-1.2-0.1-1.7-0.2l0,0l0,0c-1.4-0.3-2.5-0.9-3.3-1.9l0,0
			l0,0c-0.8-1-1.4-2-1.8-3.2l0,0l0,0c-0.4-1.2-0.7-2.3-0.8-3.5l0,0l0,0c-0.1-1.1-0.2-2-0.2-2.6l0,0v-0.8v-36.7h7.6V-68.3z
			 M-63.7-30.3L-63.7-30.3L-63.7-30.3c0,1.9,0.4,3.3,1.2,4.2l0,0l0,0c0.8,0.9,1.9,1.5,3.3,1.6l0,0v5.1l0,0c-0.2,0-0.4,0.1-0.8,0.1
			l0,0l0,0c-1.4,0-2.8-0.2-4.1-0.6l0,0l0,0c-1.3-0.4-2.5-1-3.5-1.8l0,0l0,0c-1-0.8-1.8-1.9-2.3-3.3l0,0l0,0
			c-0.6-1.4-0.8-3.1-0.8-5.1l0,0l0,0c0-1.9,0.4-3.6,1.2-5l0,0l0,0c0.8-1.4,1.9-2.5,3.1-3.4l0,0l0,0c1.3-0.9,2.7-1.6,4.4-2l0,0l0,0
			c1.6-0.4,3.3-0.7,4.9-0.7l0,0h2.8v4.4h-1.4l0,0c-0.8,0-1.7,0.1-2.6,0.3l0,0l0,0c-0.9,0.2-1.8,0.5-2.6,0.9l0,0l0,0
			c-0.8,0.5-1.5,1.1-2,2l0,0l0,0C-63.4-32.8-63.7-31.7-63.7-30.3z M-44.2-30.7v0.5l0,0c0,0.3,0,0.8,0.1,1.5l0,0l0,0
			c0,0.6,0.1,1.3,0.3,2l0,0l0,0c0.1,0.7,0.3,1.3,0.6,1.8l0,0l0,0c0.3,0.5,0.6,0.9,1.1,1.1l0,0l-2,4.2l0,0c-0.5,0-1.1-0.1-1.7-0.4
			l0,0l0,0c-0.6-0.3-1.2-0.6-1.8-1.1l0,0l0,0c-0.6-0.5-1-1-1.4-1.5l0,0l0,0c-0.4-0.6-0.7-1.2-0.9-1.8l0,0l0,0c-0.4,1-1.2,2-2.5,2.8
			l0,0l0,0c-1.2,0.8-2.6,1.4-4.1,1.8l0,0v-4.8l0,0c1-0.2,1.9-0.6,2.7-1.2l0,0l0,0c0.8-0.6,1.5-1.3,2.1-2.1l0,0v-13.2l0,0
			c0-2-0.1-3.7-0.3-4.9l0,0l0,0c-0.2-1.2-0.6-2.1-1.1-2.7l0,0l0,0c-0.5-0.6-1.1-0.9-1.8-1.1l0,0l0,0c-0.7-0.1-1.6-0.2-2.6-0.2l0,0
			l0,0c-0.9,0-1.8,0.1-2.6,0.3l0,0l0,0c-0.8,0.2-1.6,0.5-2.3,0.8l0,0l0,0c-0.7,0.3-1.3,0.7-1.8,1l0,0l0,0c-0.5,0.4-0.9,0.7-1.2,0.9
			l0,0l-2.8-4.3l0,0c0.4-0.5,1-0.9,1.9-1.4l0,0l0,0c0.8-0.5,1.8-0.9,2.9-1.3l0,0l0,0c1.1-0.4,2.3-0.7,3.5-0.9l0,0l0,0
			c1.3-0.2,2.6-0.3,4-0.3l0,0l0,0c1.2,0,2.5,0.1,3.6,0.4l0,0l0,0c1.2,0.3,2.3,0.7,3.3,1.3l0,0l0,0c1,0.6,1.8,1.4,2.6,2.4l0,0l0,0
			c0.7,1,1.2,2.2,1.5,3.7l0,0l0,0c0.3,1.5,0.5,2.9,0.6,4.4l0,0l0,0c0.1,1.5,0.2,3,0.2,4.4l0,0L-44.2-30.7L-44.2-30.7z M-32.3-55h6.7
			l0.8,3.6v31.7h-7.6L-32.3-55L-32.3-55z M-6.1-51.1L-6.1-51.1L-6.1-51.1c0.7,0.7,1.3,1.5,1.6,2.5l0,0l0,0c0.4,0.9,0.7,1.9,0.9,2.9
			l0,0l0,0c0.2,1,0.3,2,0.3,3.1l0,0l0,0c0,1,0.1,2.1,0.1,3.1l0,0V-21v1.3h-7.6v-19.2l0,0c0-1.4-0.1-2.8-0.2-4.1l0,0l0,0
			c-0.1-1.3-0.4-2.4-0.9-3.4l0,0l0,0c-0.5-1-1.1-1.8-1.9-2.3l0,0l0,0c-0.8-0.6-1.9-0.8-3.3-0.8l0,0l0,0c-0.6,0-1.4,0.1-2.4,0.3l0,0
			l0,0c-1,0.2-1.9,0.5-2.8,0.9l0,0v-4.8l0,0c1.1-0.6,2.3-1.1,3.7-1.5l0,0l0,0c1.3-0.4,2.6-0.6,3.8-0.6l0,0l0,0
			c1.9,0,3.5,0.4,4.8,1.2l0,0l0,0C-8.6-53.4-7.4-52.4-6.1-51.1z M23.7-49.4v-5.9l0,0c2.2,0.2,4.3,0.8,6.1,1.8l0,0l0,0
			c1.8,1,3.4,2.3,4.7,3.9l0,0l0,0c1.3,1.6,2.3,3.4,3,5.4l0,0l0,0c0.7,2,1,4.2,1,6.4l0,0l0,0c0,1-0.1,2-0.2,3l0,0H16.8v-5.5h14.4l0,0
			c0-1.1-0.2-2.1-0.5-3.1l0,0l0,0c-0.4-1-0.9-1.9-1.6-2.8l0,0l0,0c-0.7-0.9-1.5-1.6-2.4-2.2l0,0l0,0C25.8-48.9,24.8-49.3,23.7-49.4
			L23.7-49.4z M23.4-25.6L23.4-25.6L23.4-25.6c0.5,0,1-0.1,1.7-0.2l0,0l0,0c0.7-0.1,1.4-0.3,2.2-0.6l0,0l0,0c0.8-0.3,1.5-0.6,2.3-1
			l0,0l0,0c0.8-0.4,1.5-0.9,2-1.5l0,0l2.8,4.2l0,0c-1.4,1.7-3,3-4.8,3.9l0,0l0,0c-1.8,0.9-4.2,1.3-7,1.3l0,0l0,0
			c-2.3,0-4.4-0.5-6.4-1.4l0,0l0,0c-2-0.9-3.7-2.2-5.1-3.8l0,0l0,0c-1.4-1.6-2.5-3.5-3.4-5.7l0,0l0,0c-0.8-2.2-1.3-4.5-1.3-7l0,0
			l0,0c0-2.4,0.4-4.6,1.1-6.8l0,0l0,0c0.8-2.1,1.8-4,3.2-5.6l0,0l0,0c1.3-1.6,2.9-2.9,4.6-3.9l0,0l0,0c1.8-1,3.7-1.6,5.7-1.7l0,0v6
			l0,0c-1.5,0.3-2.8,0.9-3.8,1.9l0,0l0,0c-1,1-1.8,2.1-2.3,3.3l0,0l0,0c-0.6,1.2-1,2.5-1.2,3.8l0,0l0,0c-0.2,1.3-0.3,2.4-0.3,3.3
			l0,0l0,0c0,1.6,0.2,3.1,0.6,4.5l0,0l0,0c0.4,1.4,1,2.6,1.8,3.6l0,0l0,0c0.8,1,1.9,1.8,3.1,2.4l0,0l0,0
			C20.2-25.9,21.7-25.6,23.4-25.6z M58.9-49.8v19.4l0,0c0,1.4,0.2,2.5,0.6,3.3l0,0l0,0c0.4,0.8,0.9,1.4,1.6,1.8l0,0l0,0
			c0.7,0.4,1.5,0.7,2.3,0.8l0,0l0,0c0.9,0.1,1.8,0.2,2.7,0.2l0,0v4.6l0,0c-0.5,0.1-1.1,0.1-1.6,0.2l0,0l0,0c-0.5,0-1,0.1-1.7,0.1
			l0,0l0,0c-0.6,0-1.3,0-1.9,0l0,0l0,0c-0.6,0-1.3,0-1.9-0.1l0,0l0,0c-0.6,0-1.2-0.1-1.7-0.2l0,0l0,0c-1.4-0.2-2.5-0.9-3.3-1.8l0,0
			l0,0c-0.8-1-1.4-2.1-1.8-3.3l0,0l0,0c-0.4-1.2-0.6-2.3-0.8-3.5l0,0l0,0c-0.1-1.1-0.2-2-0.2-2.6l0,0v-19h-4.6V-55h4.6v-10h7.6v10
			h5.6v5.1h-5.5C58.9-49.9,58.9-49.8,58.9-49.8z M74.1-44.9L74.1-44.9L74.1-44.9c0-1.6,0.3-3,0.9-4.3l0,0l0,0
			c0.6-1.3,1.4-2.4,2.4-3.3l0,0l0,0c1-0.9,2.2-1.6,3.5-2.1l0,0l0,0c1.3-0.5,2.7-0.9,4.1-1l0,0v6.3l0,0c-1.1,0.2-1.9,0.6-2.5,1.3l0,0
			l0,0c-0.6,0.7-0.9,1.6-0.9,2.8l0,0l0,0c0,1,0.3,1.8,1,2.4l0,0l0,0c0.6,0.6,1.5,1.1,2.5,1.6l0,0v6.7l0,0c-0.7-0.2-1.4-0.4-2.2-0.7
			l0,0l0,0c-0.7-0.3-1.4-0.6-2.1-0.9l0,0l0,0c-2.2-1.2-3.9-2.4-5-3.7l0,0l0,0C74.7-41.1,74.1-42.8,74.1-44.9z M97.4-52.7L95-47.5
			l0,0c-1.1-0.6-2.3-1-3.6-1.3l0,0l0,0c-1.3-0.3-2.5-0.5-3.8-0.6l0,0v-6.2l0,0c1.9,0.1,3.6,0.4,5.2,0.8l0,0l0,0
			C94.4-54.4,95.9-53.7,97.4-52.7L97.4-52.7z M74.3-22.5l3.2-5.1l0,0c0.8,0.6,1.8,1.1,3,1.6l0,0l0,0c1.1,0.5,2.6,0.8,4.4,0.8l0,0
			h0.3v5.8l0,0c-1,0-2,0-2.9-0.1l0,0l0,0c-0.9-0.1-1.7-0.2-2.6-0.4l0,0l0,0c-0.9-0.2-1.7-0.6-2.6-1l0,0l0,0
			C76.1-21.3,75.2-21.9,74.3-22.5L74.3-22.5z M87.6-33.5v-6.6l0,0c1.3,0.4,2.5,0.9,3.8,1.4l0,0l0,0c1.3,0.5,2.5,1.1,3.5,1.9l0,0l0,0
			c1.1,0.8,1.9,1.7,2.6,2.8l0,0l0,0c0.7,1.1,1,2.5,1,4.2l0,0l0,0c0,1.6-0.3,3-0.9,4.3l0,0l0,0c-0.6,1.2-1.4,2.2-2.4,3.1l0,0l0,0
			c-1,0.9-2.1,1.6-3.5,2.1l0,0l0,0c-1.3,0.5-2.8,0.8-4.3,1l0,0v-5.9l0,0c1.4-0.3,2.5-0.7,3.3-1.3l0,0l0,0c0.8-0.6,1.2-1.5,1.2-2.6
			l0,0l0,0c0-1.1-0.4-1.9-1.3-2.5l0,0l0,0C89.9-32.5,88.9-33.1,87.6-33.5L87.6-33.5z"/>
	</g>
</g>
</svg>
